# xmcd
#
# Track frame offsets:
# 150
# 11255
# 25337
# 39277
# 57375
# 70661
# 86219
# 105612
# 121144
# 132404
#
# Disc length: 2000 seconds
#
#
# Revision: 0
# Processed by: cddbd v1.5.2PL0 Copyright (c) Steve Scherf et al.
# Submitted via: FreeRIP 2.945 
#
DISCID=7c07ce0a
DTITLE=Bob Wurst - The Wonder of You
DYEAR=1900
DGENRE=Country
TTITLE0=The Wonder of You
TTITLE1=Who's Your Daddy
TTITLE2=Sea of Love
TTITLE3=God Blessed Texas
TTITLE4=My Girl
TTITLE5=I Wanna Dance With You
TTITLE6=Lost in the 50's
TTITLE7=New York, New York
TTITLE8=Only the Lonely
TTITLE9=Amazed
EXTD=
EXTT0=
EXTT1=
EXTT2=
EXTT3=
EXTT4=
EXTT5=
EXTT6=
EXTT7=
EXTT8=
EXTT9=
PLAYORDER=
